{"title":"Snow.White.and.the.Huntsman.2012.EXTENDED.BRRip.720p.x264.Feel-F","uid":7589119,"size":3372040056,"categoryP":"video","categoryS":"hd___movies","magnet":"?xt=urn:btih:f9a7811cf9a66df12e49979948908572cf79f93e&amp;dn=Snow.White.and.the.Huntsman.2012.EXTENDED.BRRip.720p.x264.Feel-F&amp;tr=udp%3A%2F%2Ftracker.openbittorrent.com%3A80&amp;tr=udp%3A%2F%2Fopen.demonii.com%3A1337&amp;tr=udp%3A%2F%2Ftracker.coppersurfer.tk%3A6969&amp;tr=udp%3A%2F%2Fexodus.desync.com%3A6969","seeders":0,"leechers":0,"uploader":"Gh0stNet","files":10,"time":1346492006,"description":" &lt;a href=&quot;http://img853.imageshack.us/img853/6508/evy7ccon.jpg&quot; rel=&quot;nofollow&quot; target=&quot;_NEW&quot;&gt;http://img853.imageshack.us/img853/6508/evy7ccon.jpg&lt;/a&gt;\n\n\nGenre:Action | Adventure | Drama\nLanguage:English\nIMDb:http://www.imdb.com/title/tt1735898/\nSource:EXTENDED.720p.BluRay.X264-AMIABLE Thanks!\nEncoder:Tony\n\nFormat : MPEG-4\nFormat profile : Base Media\nCodec ID : isom\nFile size : 3.14 GiB\nDuration : 2h 11mn\nOverall bit rate mode : Variable\nOverall bit rate : 3 413 Kbps\n\nVideo\nID : 1\nFormat : AVC\nFormat/Info : Advanced Video Codec\nFormat profile : &lt;a class=&quot;__cf_email__&quot; href=&quot;/cdn-cgi/l/email-protection&quot; data-cfemail=&quot;f0b8999798b0bcc4dec1&quot;&gt;[email&amp;#160;protected]&lt;/a&gt;&lt;script data-cfhash='f9e31' type=&quot;text/javascript&quot;&gt;\n/* &lt;![CDATA[ */!function(){try{var t=&quot;currentScript&quot;in document?document.currentScript:function(){for(var t=document.getElementsByTagName(&quot;script&quot;),e=t.length;e--;)if(t[e].getAttribute(&quot;data-cfhash&quot;))return t[e]}();if(t&amp;&amp;t.previousSibling){var e,r,n,i,c=t.previousSibling,a=c.getAttribute(&quot;data-cfemail&quot;);if(a){for(e=&quot;&quot;,r=parseInt(a.substr(0,2),16),n=2;a.length-n;n+=2)i=parseInt(a.substr(n,2),16)^r,e+=String.fromCharCode(i);e=document.createTextNode(e),c.parentNode.replaceChild(e,c)}t.parentNode.removeChild(t);}}catch(u){}}()/* ]]&gt; */&lt;/script&gt;\nFormat settings, CABAC : Yes\nFormat settings, ReFrames : 3 frames\nCodec ID : avc1\nCodec ID/Info : Advanced Video Coding\nDuration : 2h 11mn\nBit rate : 3 000 Kbps\nMaximum bit rate : 11.8 Mbps\nWidth : 1 280 pixels\nHeight : 544 pixels\nDisplay aspect ratio : 2.35:1\nFrame rate mode : Constant\nFrame rate : 23.976 fps\nColor space : YUV\nChroma subsampling : 4:2:0\nBit depth : 8 bits\nScan type : Progressive\nBits/(Pixel*Frame) : 0.180\nStream size : 2.72 GiB (87%)\nWriting library : x264\n\nAudio\nID : 2\nFormat : AAC\nFormat/Info : Advanced Audio Codec\nFormat profile : LC\nCodec ID : 40\nDuration : 2h 11mn\nBit rate mode : Variable\nBit rate : 444 Kbps\nMaximum bit rate : 556 Kbps\nChannel(s) : 6 channels\nChannel positions : Front: L C R, Side: L R, LFE\nSampling rate : 48.0 KHz\nCompression mode : Lossy\nStream size : 418 MiB (13%)\n\n\n\nPlot:\nIn a twist to the fairy tale, the Huntsman ordered to take Snow White into the woods to be killed winds up becoming her protector and mentor in a quest to vanquish the Evil Queen.\n\n &lt;a href=&quot;\nhttp://img641.imageshack.us/img641/7323/vlcsnap2012090109h36m20.png&quot; rel=&quot;nofollow&quot; target=&quot;_NEW&quot;&gt;\nhttp://img641.imageshack.us/img641/7323/vlcsnap2012090109h36m20.png&lt;/a&gt; &lt;a href=&quot;\nhttp://img838.imageshack.us/img838/842/vlcsnap2012090109h36m34.png&quot; rel=&quot;nofollow&quot; target=&quot;_NEW&quot;&gt;\nhttp://img838.imageshack.us/img838/842/vlcsnap2012090109h36m34.png&lt;/a&gt; &lt;a href=&quot;\nhttp://img109.imageshack.us/img109/3889/vlcsnap2012090109h36m41.png&quot; rel=&quot;nofollow&quot; target=&quot;_NEW&quot;&gt;\nhttp://img109.imageshack.us/img109/3889/vlcsnap2012090109h36m41.png&lt;/a&gt; &lt;a href=&quot;\nhttp://img145.imageshack.us/img145/3192/vlcsnap2012090109h37m03.png&quot; rel=&quot;nofollow&quot; target=&quot;_NEW&quot;&gt;\nhttp://img145.imageshack.us/img145/3192/vlcsnap2012090109h37m03.png&lt;/a&gt; &lt;a href=&quot;\nhttp://img109.imageshack.us/img109/4907/vlcsnap2012090109h37m17.png&quot; rel=&quot;nofollow&quot; target=&quot;_NEW&quot;&gt;\nhttp://img109.imageshack.us/img109/4907/vlcsnap2012090109h37m17.png&lt;/a&gt; &lt;a href=&quot;\nhttp://img145.imageshack.us/img145/6039/vlcsnap2012090109h37m51.png&quot; rel=&quot;nofollow&quot; target=&quot;_NEW&quot;&gt;\nhttp://img145.imageshack.us/img145/6039/vlcsnap2012090109h37m51.png&lt;/a&gt;","torrent":{"xt":"urn:btih:f9a7811cf9a66df12e49979948908572cf79f93e","amp;dn":"Snow.White.and.the.Huntsman.2012.EXTENDED.BRRip.720p.x264.Feel-F","amp;tr":["udp%3A%2F%2Ftracker.openbittorrent.com%3A80","udp%3A%2F%2Fopen.demonii.com%3A1337","udp%3A%2F%2Ftracker.coppersurfer.tk%3A6969","udp%3A%2F%2Fexodus.desync.com%3A6969"],"infoHash":"f9a7811cf9a66df12e49979948908572cf79f93e","infoHashBuffer":{"type":"Buffer","data":[249,167,129,28,249,166,109,241,46,73,151,153,72,144,133,114,207,121,249,62]},"announce":[],"urlList":[]}}